<?xml version="1.0" encoding="utf-8"?>
<!-- Generator: Adobe Illustrator 23.0.4, SVG Export Plug-In . SVG Version: 6.00 Build 0)  -->
<svg version="1.1" id="Layer_1" xmlns="http://www.w3.org/2000/svg" xmlns:xlink="http://www.w3.org/1999/xlink" x="0px" y="0px"
	 viewBox="0 0 32 32" style="enable-background:new 0 0 32 32;" xml:space="preserve">
<style type="text/css">
	.st0{fill:#008AD0;}
	.st1{fill:#333333;}
</style>
<g>
	<path class="st1" d="M28,31H4c-1.654,0-3-1.346-3-3V13c0-0.552,0.448-1,1-1s1,0.448,1,1v15c0,0.551,0.449,1,1,1h24
		c0.551,0,1-0.449,1-1V13c0-0.552,0.448-1,1-1s1,0.448,1,1v15C31,29.654,29.654,31,28,31z"/>
</g>
<g>
	<path class="st1" d="M2,14c-0.296,0-0.589-0.131-0.787-0.382c-0.341-0.434-0.266-1.062,0.168-1.404l3.894-3.06
		C5.709,8.812,6.338,8.888,6.68,9.323c0.341,0.434,0.266,1.062-0.168,1.404l-3.894,3.06C2.435,13.93,2.217,14,2,14z"/>
</g>
<g>
	<path class="st1" d="M10.947,6.97c-0.296,0-0.589-0.131-0.787-0.382c-0.341-0.434-0.266-1.063,0.168-1.404l5.053-3.97
		c0.434-0.341,1.062-0.267,1.404,0.168c0.341,0.434,0.266,1.063-0.168,1.404l-5.053,3.97C11.381,6.9,11.164,6.97,10.947,6.97z"/>
</g>
<g>
	<path class="st1" d="M20.861,6.82c-0.216,0-0.434-0.07-0.617-0.214l-4.861-3.82c-0.435-0.341-0.51-0.97-0.168-1.404
		c0.342-0.436,0.971-0.509,1.404-0.168l4.861,3.82c0.435,0.341,0.51,0.97,0.168,1.404C21.45,6.689,21.157,6.82,20.861,6.82z"/>
</g>
<g>
	<path class="st1" d="M30,14c-0.216,0-0.434-0.07-0.617-0.214l-3.959-3.111c-0.435-0.341-0.51-0.97-0.168-1.404
		c0.341-0.435,0.969-0.511,1.404-0.168l3.959,3.111c0.435,0.341,0.51,0.97,0.168,1.404C30.589,13.869,30.296,14,30,14z"/>
</g>
<g>
	<path class="st1" d="M5.001,28c-0.302,0-0.6-0.136-0.797-0.395c-0.334-0.44-0.249-1.067,0.19-1.401l8.06-6.129
		c0.44-0.335,1.067-0.249,1.401,0.19c0.334,0.44,0.249,1.067-0.19,1.401l-8.06,6.129C5.424,27.934,5.212,28,5.001,28z"/>
</g>
<g>
	<path class="st1" d="M26.999,28c-0.211,0-0.423-0.066-0.604-0.204l-8.06-6.129c-0.439-0.334-0.525-0.961-0.19-1.401
		c0.334-0.439,0.961-0.525,1.401-0.19l8.06,6.129c0.439,0.334,0.525,0.961,0.19,1.401C27.599,27.864,27.301,28,26.999,28z"/>
</g>
<g>
	<path class="st1" d="M16,24.014c-0.204,0-0.408-0.062-0.582-0.187l-14-10.014c-0.449-0.321-0.553-0.946-0.232-1.395
		c0.321-0.449,0.944-0.554,1.395-0.232L16,21.784l13.418-9.598c0.449-0.322,1.073-0.217,1.395,0.232
		c0.321,0.449,0.217,1.074-0.232,1.395l-14,10.014C16.408,23.952,16.204,24.014,16,24.014z"/>
</g>
<g>
	<path class="st1" d="M26,16.151c-0.552,0-1-0.448-1-1V7H7v8.151c0,0.552-0.448,1-1,1s-1-0.448-1-1V7c0-1.103,0.897-2,2-2h18
		c1.103,0,2,0.897,2,2v8.151C27,15.704,26.552,16.151,26,16.151z"/>
</g>
<g>
	<path class="st0" d="M22,11H10c-0.552,0-1-0.448-1-1s0.448-1,1-1h12c0.552,0,1,0.448,1,1S22.552,11,22,11z"/>
</g>
<g>
	<path class="st0" d="M22,15H10c-0.552,0-1-0.448-1-1s0.448-1,1-1h12c0.552,0,1,0.448,1,1S22.552,15,22,15z"/>
</g>
</svg>
